<mxfile host="app.diagrams.net" agent="Mozilla/5.0 (Windows NT 10.0; Win64; x64) AppleWebKit/537.36 (KHTML, like Gecko) Chrome/134.0.0.0 Safari/537.36" version="26.1.1">
  <diagram name="Seite-1" id="4dcg0vHGuqqYUlQTSMQ8">
    <mxGraphModel dx="1859" dy="418" grid="1" gridSize="10" guides="1" tooltips="1" connect="1" arrows="1" fold="1" page="1" pageScale="1" pageWidth="827" pageHeight="1169" math="0" shadow="0">
      <root>
        <mxCell id="0" />
        <mxCell id="1" parent="0" />
        <mxCell id="j3HLhpbiNIqz7EdV_f9R-1" value="" style="rounded=0;whiteSpace=wrap;html=1;fillColor=none;dashed=1;" parent="1" vertex="1">
          <mxGeometry x="120" y="160" width="480" height="220" as="geometry" />
        </mxCell>
        <mxCell id="j3HLhpbiNIqz7EdV_f9R-2" value="Train Station" style="text;html=1;align=center;verticalAlign=middle;resizable=0;points=[];autosize=1;strokeColor=none;fillColor=none;" parent="1" vertex="1">
          <mxGeometry x="120" y="160" width="90" height="30" as="geometry" />
        </mxCell>
        <mxCell id="j3HLhpbiNIqz7EdV_f9R-5" value="Central Station" style="rounded=0;whiteSpace=wrap;html=1;fillColor=#0050ef;fontColor=#ffffff;strokeColor=#001DBC;" parent="1" vertex="1">
          <mxGeometry x="1085" y="857" width="120" height="60" as="geometry" />
        </mxCell>
        <mxCell id="j3HLhpbiNIqz7EdV_f9R-8" value="" style="edgeStyle=orthogonalEdgeStyle;rounded=0;orthogonalLoop=1;jettySize=auto;html=1;endArrow=none;startFill=0;" parent="1" source="j3HLhpbiNIqz7EdV_f9R-6" target="j3HLhpbiNIqz7EdV_f9R-7" edge="1">
          <mxGeometry relative="1" as="geometry" />
        </mxCell>
        <mxCell id="j3HLhpbiNIqz7EdV_f9R-9" value="645mm" style="edgeLabel;html=1;align=center;verticalAlign=middle;resizable=0;points=[];" parent="j3HLhpbiNIqz7EdV_f9R-8" vertex="1" connectable="0">
          <mxGeometry x="0.115" y="-2" relative="1" as="geometry">
            <mxPoint y="2" as="offset" />
          </mxGeometry>
        </mxCell>
        <mxCell id="j3HLhpbiNIqz7EdV_f9R-6" value="W15" style="rounded=0;whiteSpace=wrap;html=1;fillColor=#008a00;fontColor=#ffffff;strokeColor=#005700;" parent="1" vertex="1">
          <mxGeometry x="751" y="877" width="60" height="40" as="geometry" />
        </mxCell>
        <mxCell id="j3HLhpbiNIqz7EdV_f9R-11" value="" style="edgeStyle=orthogonalEdgeStyle;rounded=0;orthogonalLoop=1;jettySize=auto;html=1;endArrow=none;startFill=0;" parent="1" source="j3HLhpbiNIqz7EdV_f9R-7" target="j3HLhpbiNIqz7EdV_f9R-10" edge="1">
          <mxGeometry relative="1" as="geometry" />
        </mxCell>
        <mxCell id="j3HLhpbiNIqz7EdV_f9R-12" value="376mm" style="edgeLabel;html=1;align=center;verticalAlign=middle;resizable=0;points=[];" parent="j3HLhpbiNIqz7EdV_f9R-11" vertex="1" connectable="0">
          <mxGeometry x="-0.18" relative="1" as="geometry">
            <mxPoint as="offset" />
          </mxGeometry>
        </mxCell>
        <mxCell id="j3HLhpbiNIqz7EdV_f9R-7" value="K7" style="rounded=0;whiteSpace=wrap;html=1;fillColor=#e3c800;fontColor=#000000;strokeColor=#B09500;" parent="1" vertex="1">
          <mxGeometry x="571" y="877" width="60" height="40" as="geometry" />
        </mxCell>
        <mxCell id="j3HLhpbiNIqz7EdV_f9R-17" value="" style="edgeStyle=orthogonalEdgeStyle;rounded=0;orthogonalLoop=1;jettySize=auto;html=1;endArrow=none;startFill=0;" parent="1" source="j3HLhpbiNIqz7EdV_f9R-10" target="j3HLhpbiNIqz7EdV_f9R-16" edge="1">
          <mxGeometry relative="1" as="geometry" />
        </mxCell>
        <mxCell id="j3HLhpbiNIqz7EdV_f9R-20" value="247mm" style="edgeLabel;html=1;align=center;verticalAlign=middle;resizable=0;points=[];" parent="j3HLhpbiNIqz7EdV_f9R-17" vertex="1" connectable="0">
          <mxGeometry x="0.0333" relative="1" as="geometry">
            <mxPoint as="offset" />
          </mxGeometry>
        </mxCell>
        <mxCell id="j3HLhpbiNIqz7EdV_f9R-10" value="W10" style="rounded=0;whiteSpace=wrap;html=1;fillColor=#008a00;fontColor=#ffffff;strokeColor=#005700;" parent="1" vertex="1">
          <mxGeometry x="400" y="877" width="60" height="40" as="geometry" />
        </mxCell>
        <mxCell id="j3HLhpbiNIqz7EdV_f9R-23" value="" style="edgeStyle=orthogonalEdgeStyle;rounded=0;orthogonalLoop=1;jettySize=auto;html=1;endArrow=none;startFill=0;" parent="1" source="j3HLhpbiNIqz7EdV_f9R-16" target="j3HLhpbiNIqz7EdV_f9R-22" edge="1">
          <mxGeometry relative="1" as="geometry" />
        </mxCell>
        <mxCell id="j3HLhpbiNIqz7EdV_f9R-24" value="86mm" style="edgeLabel;html=1;align=center;verticalAlign=middle;resizable=0;points=[];" parent="j3HLhpbiNIqz7EdV_f9R-23" vertex="1" connectable="0">
          <mxGeometry x="-0.0879" relative="1" as="geometry">
            <mxPoint as="offset" />
          </mxGeometry>
        </mxCell>
        <mxCell id="j3HLhpbiNIqz7EdV_f9R-16" value="S8" style="rounded=0;whiteSpace=wrap;html=1;fillColor=#a20025;fontColor=#ffffff;strokeColor=#6F0000;" parent="1" vertex="1">
          <mxGeometry x="140" y="877" width="60" height="40" as="geometry" />
        </mxCell>
        <mxCell id="j3HLhpbiNIqz7EdV_f9R-19" style="edgeStyle=orthogonalEdgeStyle;rounded=0;orthogonalLoop=1;jettySize=auto;html=1;endArrow=none;startFill=0;entryX=0;entryY=0.25;entryDx=0;entryDy=0;exitX=1;exitY=0.75;exitDx=0;exitDy=0;" parent="1" source="j3HLhpbiNIqz7EdV_f9R-18" target="j3HLhpbiNIqz7EdV_f9R-10" edge="1">
          <mxGeometry relative="1" as="geometry">
            <mxPoint x="340" y="887" as="targetPoint" />
            <Array as="points">
              <mxPoint x="340" y="842" />
              <mxPoint x="340" y="887" />
            </Array>
          </mxGeometry>
        </mxCell>
        <mxCell id="j3HLhpbiNIqz7EdV_f9R-21" value="183mm" style="edgeLabel;html=1;align=center;verticalAlign=middle;resizable=0;points=[];" parent="j3HLhpbiNIqz7EdV_f9R-19" vertex="1" connectable="0">
          <mxGeometry x="0.0024" relative="1" as="geometry">
            <mxPoint as="offset" />
          </mxGeometry>
        </mxCell>
        <mxCell id="j3HLhpbiNIqz7EdV_f9R-43" value="" style="edgeStyle=orthogonalEdgeStyle;rounded=0;orthogonalLoop=1;jettySize=auto;html=1;endArrow=none;startFill=0;entryX=1;entryY=0.5;entryDx=0;entryDy=0;" parent="1" source="j3HLhpbiNIqz7EdV_f9R-18" target="j3HLhpbiNIqz7EdV_f9R-42" edge="1">
          <mxGeometry relative="1" as="geometry">
            <Array as="points">
              <mxPoint x="170" y="832" />
              <mxPoint x="170" y="832" />
            </Array>
          </mxGeometry>
        </mxCell>
        <mxCell id="I5uV3tTVBNDLf7I_nqJX-10" value="282mm" style="edgeLabel;html=1;align=center;verticalAlign=middle;resizable=0;points=[];" parent="j3HLhpbiNIqz7EdV_f9R-43" vertex="1" connectable="0">
          <mxGeometry x="-0.02" y="1" relative="1" as="geometry">
            <mxPoint as="offset" />
          </mxGeometry>
        </mxCell>
        <mxCell id="j3HLhpbiNIqz7EdV_f9R-18" value="W9" style="rounded=0;whiteSpace=wrap;html=1;fillColor=#008a00;fontColor=#ffffff;strokeColor=#005700;" parent="1" vertex="1">
          <mxGeometry x="220" y="812" width="60" height="40" as="geometry" />
        </mxCell>
        <mxCell id="j3HLhpbiNIqz7EdV_f9R-26" value="" style="edgeStyle=orthogonalEdgeStyle;rounded=0;orthogonalLoop=1;jettySize=auto;html=1;endArrow=none;startFill=0;" parent="1" source="j3HLhpbiNIqz7EdV_f9R-22" target="j3HLhpbiNIqz7EdV_f9R-25" edge="1">
          <mxGeometry relative="1" as="geometry" />
        </mxCell>
        <mxCell id="I5uV3tTVBNDLf7I_nqJX-56" value="863mm" style="edgeLabel;html=1;align=center;verticalAlign=middle;resizable=0;points=[];" parent="j3HLhpbiNIqz7EdV_f9R-26" vertex="1" connectable="0">
          <mxGeometry x="0.3342" relative="1" as="geometry">
            <mxPoint as="offset" />
          </mxGeometry>
        </mxCell>
        <mxCell id="j3HLhpbiNIqz7EdV_f9R-22" value="K4" style="rounded=0;whiteSpace=wrap;html=1;fillColor=#e3c800;fontColor=#000000;strokeColor=#B09500;" parent="1" vertex="1">
          <mxGeometry x="-20" y="877" width="60" height="40" as="geometry" />
        </mxCell>
        <mxCell id="j3HLhpbiNIqz7EdV_f9R-28" value="" style="edgeStyle=orthogonalEdgeStyle;rounded=0;orthogonalLoop=1;jettySize=auto;html=1;endArrow=none;startFill=0;" parent="1" source="j3HLhpbiNIqz7EdV_f9R-25" target="j3HLhpbiNIqz7EdV_f9R-27" edge="1">
          <mxGeometry relative="1" as="geometry">
            <Array as="points">
              <mxPoint x="-110" y="120" />
            </Array>
          </mxGeometry>
        </mxCell>
        <mxCell id="I5uV3tTVBNDLf7I_nqJX-57" value="921mm" style="edgeLabel;html=1;align=center;verticalAlign=middle;resizable=0;points=[];" parent="j3HLhpbiNIqz7EdV_f9R-28" vertex="1" connectable="0">
          <mxGeometry x="-0.5228" relative="1" as="geometry">
            <mxPoint as="offset" />
          </mxGeometry>
        </mxCell>
        <mxCell id="j3HLhpbiNIqz7EdV_f9R-25" value="K12" style="rounded=0;whiteSpace=wrap;html=1;fillColor=#e3c800;fontColor=#000000;strokeColor=#B09500;" parent="1" vertex="1">
          <mxGeometry x="-140" y="707" width="60" height="40" as="geometry" />
        </mxCell>
        <mxCell id="j3HLhpbiNIqz7EdV_f9R-30" value="" style="edgeStyle=orthogonalEdgeStyle;rounded=0;orthogonalLoop=1;jettySize=auto;html=1;endArrow=none;startFill=0;" parent="1" source="j3HLhpbiNIqz7EdV_f9R-27" target="j3HLhpbiNIqz7EdV_f9R-29" edge="1">
          <mxGeometry relative="1" as="geometry" />
        </mxCell>
        <mxCell id="I5uV3tTVBNDLf7I_nqJX-58" value="643mm" style="edgeLabel;html=1;align=center;verticalAlign=middle;resizable=0;points=[];" parent="j3HLhpbiNIqz7EdV_f9R-30" vertex="1" connectable="0">
          <mxGeometry x="-0.0658" y="-2" relative="1" as="geometry">
            <mxPoint y="-1" as="offset" />
          </mxGeometry>
        </mxCell>
        <mxCell id="j3HLhpbiNIqz7EdV_f9R-27" value="S3" style="rounded=0;whiteSpace=wrap;html=1;fillColor=#a20025;fontColor=#ffffff;strokeColor=#6F0000;" parent="1" vertex="1">
          <mxGeometry y="100" width="60" height="40" as="geometry" />
        </mxCell>
        <mxCell id="j3HLhpbiNIqz7EdV_f9R-32" value="" style="edgeStyle=orthogonalEdgeStyle;rounded=0;orthogonalLoop=1;jettySize=auto;html=1;endArrow=none;startFill=0;" parent="1" source="j3HLhpbiNIqz7EdV_f9R-29" target="j3HLhpbiNIqz7EdV_f9R-31" edge="1">
          <mxGeometry relative="1" as="geometry" />
        </mxCell>
        <mxCell id="I5uV3tTVBNDLf7I_nqJX-2" value="556mm" style="edgeLabel;html=1;align=center;verticalAlign=middle;resizable=0;points=[];" parent="j3HLhpbiNIqz7EdV_f9R-32" vertex="1" connectable="0">
          <mxGeometry x="-0.0335" y="-1" relative="1" as="geometry">
            <mxPoint y="-1" as="offset" />
          </mxGeometry>
        </mxCell>
        <mxCell id="j3HLhpbiNIqz7EdV_f9R-29" value="K27" style="rounded=0;whiteSpace=wrap;html=1;fillColor=#e3c800;fontColor=#000000;strokeColor=#B09500;" parent="1" vertex="1">
          <mxGeometry x="450" y="100" width="60" height="40" as="geometry" />
        </mxCell>
        <mxCell id="j3HLhpbiNIqz7EdV_f9R-37" value="" style="edgeStyle=orthogonalEdgeStyle;rounded=0;orthogonalLoop=1;jettySize=auto;html=1;endArrow=none;startFill=0;" parent="1" source="j3HLhpbiNIqz7EdV_f9R-31" target="j3HLhpbiNIqz7EdV_f9R-36" edge="1">
          <mxGeometry relative="1" as="geometry" />
        </mxCell>
        <mxCell id="I5uV3tTVBNDLf7I_nqJX-3" value="769mm" style="edgeLabel;html=1;align=center;verticalAlign=middle;resizable=0;points=[];" parent="j3HLhpbiNIqz7EdV_f9R-37" vertex="1" connectable="0">
          <mxGeometry x="-0.3589" y="-1" relative="1" as="geometry">
            <mxPoint y="-1" as="offset" />
          </mxGeometry>
        </mxCell>
        <mxCell id="j3HLhpbiNIqz7EdV_f9R-31" value="K29" style="rounded=0;whiteSpace=wrap;html=1;fillColor=#e3c800;fontColor=#000000;strokeColor=#B09500;" parent="1" vertex="1">
          <mxGeometry x="660" y="100" width="60" height="40" as="geometry" />
        </mxCell>
        <mxCell id="j3HLhpbiNIqz7EdV_f9R-39" value="" style="edgeStyle=orthogonalEdgeStyle;rounded=0;orthogonalLoop=1;jettySize=auto;html=1;endArrow=none;startFill=0;" parent="1" source="j3HLhpbiNIqz7EdV_f9R-36" target="j3HLhpbiNIqz7EdV_f9R-38" edge="1">
          <mxGeometry relative="1" as="geometry" />
        </mxCell>
        <mxCell id="j3HLhpbiNIqz7EdV_f9R-40" value="0mm" style="edgeLabel;html=1;align=center;verticalAlign=middle;resizable=0;points=[];" parent="j3HLhpbiNIqz7EdV_f9R-39" vertex="1" connectable="0">
          <mxGeometry x="-0.0386" y="-1" relative="1" as="geometry">
            <mxPoint as="offset" />
          </mxGeometry>
        </mxCell>
        <mxCell id="j3HLhpbiNIqz7EdV_f9R-36" value="S5" style="rounded=0;whiteSpace=wrap;html=1;fillColor=#a20025;fontColor=#ffffff;strokeColor=#6F0000;" parent="1" vertex="1">
          <mxGeometry x="1011" y="240" width="60" height="40" as="geometry" />
        </mxCell>
        <mxCell id="j3HLhpbiNIqz7EdV_f9R-85" style="edgeStyle=orthogonalEdgeStyle;rounded=0;orthogonalLoop=1;jettySize=auto;html=1;entryX=1;entryY=0.5;entryDx=0;entryDy=0;endArrow=none;startFill=0;" parent="1" source="j3HLhpbiNIqz7EdV_f9R-38" target="j3HLhpbiNIqz7EdV_f9R-6" edge="1">
          <mxGeometry relative="1" as="geometry">
            <mxPoint x="875" y="802" as="targetPoint" />
            <Array as="points">
              <mxPoint x="1041" y="897" />
            </Array>
          </mxGeometry>
        </mxCell>
        <mxCell id="I5uV3tTVBNDLf7I_nqJX-4" value="637mm" style="edgeLabel;html=1;align=center;verticalAlign=middle;resizable=0;points=[];" parent="j3HLhpbiNIqz7EdV_f9R-85" vertex="1" connectable="0">
          <mxGeometry x="-0.3931" relative="1" as="geometry">
            <mxPoint x="3" as="offset" />
          </mxGeometry>
        </mxCell>
        <mxCell id="j3HLhpbiNIqz7EdV_f9R-38" value="K16" style="rounded=0;whiteSpace=wrap;html=1;fillColor=#e3c800;fontColor=#000000;strokeColor=#B09500;" parent="1" vertex="1">
          <mxGeometry x="1011" y="370" width="60" height="40" as="geometry" />
        </mxCell>
        <mxCell id="j3HLhpbiNIqz7EdV_f9R-48" style="edgeStyle=orthogonalEdgeStyle;rounded=0;orthogonalLoop=1;jettySize=auto;html=1;entryX=0;entryY=0.5;entryDx=0;entryDy=0;endArrow=none;startFill=0;exitX=1;exitY=0.25;exitDx=0;exitDy=0;" parent="1" source="j3HLhpbiNIqz7EdV_f9R-42" target="j3HLhpbiNIqz7EdV_f9R-47" edge="1">
          <mxGeometry relative="1" as="geometry">
            <Array as="points">
              <mxPoint x="180" y="822" />
              <mxPoint x="180" y="787" />
            </Array>
          </mxGeometry>
        </mxCell>
        <mxCell id="N_5T8xurVbvDqW62l02_-1" value="0mm" style="edgeLabel;html=1;align=center;verticalAlign=middle;resizable=0;points=[];" parent="j3HLhpbiNIqz7EdV_f9R-48" vertex="1" connectable="0">
          <mxGeometry x="0.081" relative="1" as="geometry">
            <mxPoint as="offset" />
          </mxGeometry>
        </mxCell>
        <mxCell id="j3HLhpbiNIqz7EdV_f9R-50" value="" style="edgeStyle=orthogonalEdgeStyle;rounded=0;orthogonalLoop=1;jettySize=auto;html=1;endArrow=none;startFill=0;" parent="1" source="j3HLhpbiNIqz7EdV_f9R-42" target="j3HLhpbiNIqz7EdV_f9R-49" edge="1">
          <mxGeometry relative="1" as="geometry" />
        </mxCell>
        <mxCell id="I5uV3tTVBNDLf7I_nqJX-11" value="605mm" style="edgeLabel;html=1;align=center;verticalAlign=middle;resizable=0;points=[];" parent="j3HLhpbiNIqz7EdV_f9R-50" vertex="1" connectable="0">
          <mxGeometry x="0.4123" relative="1" as="geometry">
            <mxPoint as="offset" />
          </mxGeometry>
        </mxCell>
        <mxCell id="j3HLhpbiNIqz7EdV_f9R-42" value="W?" style="rounded=0;whiteSpace=wrap;html=1;fillColor=#008a00;fontColor=#ffffff;strokeColor=#005700;" parent="1" vertex="1">
          <mxGeometry x="80" y="812" width="60" height="40" as="geometry" />
        </mxCell>
        <mxCell id="j3HLhpbiNIqz7EdV_f9R-47" value="P1" style="rounded=0;whiteSpace=wrap;html=1;fillColor=#647687;strokeColor=#314354;fontColor=#ffffff;" parent="1" vertex="1">
          <mxGeometry x="220" y="767" width="60" height="40" as="geometry" />
        </mxCell>
        <mxCell id="j3HLhpbiNIqz7EdV_f9R-52" value="" style="edgeStyle=orthogonalEdgeStyle;rounded=0;orthogonalLoop=1;jettySize=auto;html=1;exitX=0.25;exitY=0;exitDx=0;exitDy=0;endArrow=none;startFill=0;entryX=0.5;entryY=1;entryDx=0;entryDy=0;" parent="1" source="j3HLhpbiNIqz7EdV_f9R-49" target="j3HLhpbiNIqz7EdV_f9R-51" edge="1">
          <mxGeometry relative="1" as="geometry">
            <mxPoint x="-20" y="495" as="targetPoint" />
            <Array as="points">
              <mxPoint x="-5" y="610" />
              <mxPoint x="-20" y="610" />
            </Array>
          </mxGeometry>
        </mxCell>
        <mxCell id="I5uV3tTVBNDLf7I_nqJX-12" value="265mm" style="edgeLabel;html=1;align=center;verticalAlign=middle;resizable=0;points=[];" parent="j3HLhpbiNIqz7EdV_f9R-52" vertex="1" connectable="0">
          <mxGeometry x="0.2469" relative="1" as="geometry">
            <mxPoint as="offset" />
          </mxGeometry>
        </mxCell>
        <mxCell id="j3HLhpbiNIqz7EdV_f9R-49" value="W13" style="rounded=0;whiteSpace=wrap;html=1;fillColor=#008a00;fontColor=#ffffff;strokeColor=#005700;" parent="1" vertex="1">
          <mxGeometry x="-20" y="707" width="60" height="40" as="geometry" />
        </mxCell>
        <mxCell id="j3HLhpbiNIqz7EdV_f9R-54" value="" style="edgeStyle=orthogonalEdgeStyle;rounded=0;orthogonalLoop=1;jettySize=auto;html=1;endArrow=none;startFill=0;" parent="1" source="j3HLhpbiNIqz7EdV_f9R-51" target="j3HLhpbiNIqz7EdV_f9R-53" edge="1">
          <mxGeometry relative="1" as="geometry" />
        </mxCell>
        <mxCell id="I5uV3tTVBNDLf7I_nqJX-13" value="286mm" style="edgeLabel;html=1;align=center;verticalAlign=middle;resizable=0;points=[];" parent="j3HLhpbiNIqz7EdV_f9R-54" vertex="1" connectable="0">
          <mxGeometry x="0.0551" relative="1" as="geometry">
            <mxPoint as="offset" />
          </mxGeometry>
        </mxCell>
        <mxCell id="j3HLhpbiNIqz7EdV_f9R-66" style="edgeStyle=orthogonalEdgeStyle;rounded=0;orthogonalLoop=1;jettySize=auto;html=1;exitX=0.75;exitY=0;exitDx=0;exitDy=0;entryX=0;entryY=0.5;entryDx=0;entryDy=0;endArrow=none;startFill=0;" parent="1" source="j3HLhpbiNIqz7EdV_f9R-51" target="j3HLhpbiNIqz7EdV_f9R-65" edge="1">
          <mxGeometry relative="1" as="geometry" />
        </mxCell>
        <mxCell id="I5uV3tTVBNDLf7I_nqJX-28" value="209mm" style="edgeLabel;html=1;align=center;verticalAlign=middle;resizable=0;points=[];" parent="j3HLhpbiNIqz7EdV_f9R-66" vertex="1" connectable="0">
          <mxGeometry x="0.2064" y="-1" relative="1" as="geometry">
            <mxPoint x="4" as="offset" />
          </mxGeometry>
        </mxCell>
        <mxCell id="j3HLhpbiNIqz7EdV_f9R-51" value="W14" style="rounded=0;whiteSpace=wrap;html=1;fillColor=#008a00;fontColor=#ffffff;strokeColor=#005700;" parent="1" vertex="1">
          <mxGeometry x="-50" y="360" width="60" height="40" as="geometry" />
        </mxCell>
        <mxCell id="j3HLhpbiNIqz7EdV_f9R-56" value="" style="edgeStyle=orthogonalEdgeStyle;rounded=0;orthogonalLoop=1;jettySize=auto;html=1;endArrow=none;startFill=0;" parent="1" source="j3HLhpbiNIqz7EdV_f9R-53" target="j3HLhpbiNIqz7EdV_f9R-55" edge="1">
          <mxGeometry relative="1" as="geometry" />
        </mxCell>
        <mxCell id="I5uV3tTVBNDLf7I_nqJX-14" value="531mm" style="edgeLabel;html=1;align=center;verticalAlign=middle;resizable=0;points=[];" parent="j3HLhpbiNIqz7EdV_f9R-56" vertex="1" connectable="0">
          <mxGeometry x="-0.1186" y="-1" relative="1" as="geometry">
            <mxPoint as="offset" />
          </mxGeometry>
        </mxCell>
        <mxCell id="j3HLhpbiNIqz7EdV_f9R-53" value="K25" style="rounded=0;whiteSpace=wrap;html=1;fillColor=#e3c800;fontColor=#000000;strokeColor=#B09500;" parent="1" vertex="1">
          <mxGeometry x="-50" y="206" width="60" height="40" as="geometry" />
        </mxCell>
        <mxCell id="j3HLhpbiNIqz7EdV_f9R-61" value="" style="edgeStyle=orthogonalEdgeStyle;rounded=0;orthogonalLoop=1;jettySize=auto;html=1;endArrow=none;startFill=0;" parent="1" source="j3HLhpbiNIqz7EdV_f9R-55" target="j3HLhpbiNIqz7EdV_f9R-60" edge="1">
          <mxGeometry relative="1" as="geometry" />
        </mxCell>
        <mxCell id="I5uV3tTVBNDLf7I_nqJX-15" value="548mm" style="edgeLabel;html=1;align=center;verticalAlign=middle;resizable=0;points=[];" parent="j3HLhpbiNIqz7EdV_f9R-61" vertex="1" connectable="0">
          <mxGeometry x="-0.142" y="-2" relative="1" as="geometry">
            <mxPoint as="offset" />
          </mxGeometry>
        </mxCell>
        <mxCell id="j3HLhpbiNIqz7EdV_f9R-55" value="K28" style="rounded=0;whiteSpace=wrap;html=1;fillColor=#e3c800;fontColor=#000000;strokeColor=#B09500;" parent="1" vertex="1">
          <mxGeometry x="160" y="206" width="60" height="40" as="geometry" />
        </mxCell>
        <mxCell id="j3HLhpbiNIqz7EdV_f9R-63" value="" style="edgeStyle=orthogonalEdgeStyle;rounded=0;orthogonalLoop=1;jettySize=auto;html=1;endArrow=none;startFill=0;" parent="1" source="j3HLhpbiNIqz7EdV_f9R-60" target="j3HLhpbiNIqz7EdV_f9R-62" edge="1">
          <mxGeometry relative="1" as="geometry" />
        </mxCell>
        <mxCell id="I5uV3tTVBNDLf7I_nqJX-16" value="94mm" style="edgeLabel;html=1;align=center;verticalAlign=middle;resizable=0;points=[];" parent="j3HLhpbiNIqz7EdV_f9R-63" vertex="1" connectable="0">
          <mxGeometry x="-0.1233" relative="1" as="geometry">
            <mxPoint as="offset" />
          </mxGeometry>
        </mxCell>
        <mxCell id="j3HLhpbiNIqz7EdV_f9R-60" value="K15" style="rounded=0;whiteSpace=wrap;html=1;fillColor=#e3c800;fontColor=#000000;strokeColor=#B09500;" parent="1" vertex="1">
          <mxGeometry x="354" y="206" width="60" height="40" as="geometry" />
        </mxCell>
        <mxCell id="j3HLhpbiNIqz7EdV_f9R-62" value="S1" style="rounded=0;whiteSpace=wrap;html=1;fillColor=#a20025;fontColor=#ffffff;strokeColor=#6F0000;" parent="1" vertex="1">
          <mxGeometry x="494" y="206" width="60" height="40" as="geometry" />
        </mxCell>
        <mxCell id="j3HLhpbiNIqz7EdV_f9R-69" style="edgeStyle=orthogonalEdgeStyle;rounded=0;orthogonalLoop=1;jettySize=auto;html=1;endArrow=none;startFill=0;" parent="1" source="j3HLhpbiNIqz7EdV_f9R-65" target="j3HLhpbiNIqz7EdV_f9R-68" edge="1">
          <mxGeometry relative="1" as="geometry" />
        </mxCell>
        <mxCell id="I5uV3tTVBNDLf7I_nqJX-29" value="532mm" style="edgeLabel;html=1;align=center;verticalAlign=middle;resizable=0;points=[];" parent="j3HLhpbiNIqz7EdV_f9R-69" vertex="1" connectable="0">
          <mxGeometry x="-0.0493" relative="1" as="geometry">
            <mxPoint as="offset" />
          </mxGeometry>
        </mxCell>
        <mxCell id="j3HLhpbiNIqz7EdV_f9R-65" value="K23" style="rounded=0;whiteSpace=wrap;html=1;fillColor=#e3c800;fontColor=#000000;strokeColor=#B09500;" parent="1" vertex="1">
          <mxGeometry x="30" y="300" width="60" height="40" as="geometry" />
        </mxCell>
        <mxCell id="j3HLhpbiNIqz7EdV_f9R-71" value="" style="edgeStyle=orthogonalEdgeStyle;rounded=0;orthogonalLoop=1;jettySize=auto;html=1;endArrow=none;startFill=0;" parent="1" source="j3HLhpbiNIqz7EdV_f9R-68" target="j3HLhpbiNIqz7EdV_f9R-70" edge="1">
          <mxGeometry relative="1" as="geometry" />
        </mxCell>
        <mxCell id="I5uV3tTVBNDLf7I_nqJX-30" value="557mm" style="edgeLabel;html=1;align=center;verticalAlign=middle;resizable=0;points=[];" parent="j3HLhpbiNIqz7EdV_f9R-71" vertex="1" connectable="0">
          <mxGeometry x="-0.0865" relative="1" as="geometry">
            <mxPoint as="offset" />
          </mxGeometry>
        </mxCell>
        <mxCell id="j3HLhpbiNIqz7EdV_f9R-68" value="K26" style="rounded=0;whiteSpace=wrap;html=1;fillColor=#e3c800;fontColor=#000000;strokeColor=#B09500;" parent="1" vertex="1">
          <mxGeometry x="160" y="300" width="60" height="40" as="geometry" />
        </mxCell>
        <mxCell id="j3HLhpbiNIqz7EdV_f9R-73" value="" style="edgeStyle=orthogonalEdgeStyle;rounded=0;orthogonalLoop=1;jettySize=auto;html=1;endArrow=none;startFill=0;" parent="1" source="j3HLhpbiNIqz7EdV_f9R-70" target="j3HLhpbiNIqz7EdV_f9R-72" edge="1">
          <mxGeometry relative="1" as="geometry" />
        </mxCell>
        <mxCell id="I5uV3tTVBNDLf7I_nqJX-31" value="92mm" style="edgeLabel;html=1;align=center;verticalAlign=middle;resizable=0;points=[];" parent="j3HLhpbiNIqz7EdV_f9R-73" vertex="1" connectable="0">
          <mxGeometry x="-0.0784" relative="1" as="geometry">
            <mxPoint as="offset" />
          </mxGeometry>
        </mxCell>
        <mxCell id="j3HLhpbiNIqz7EdV_f9R-70" value="K30" style="rounded=0;whiteSpace=wrap;html=1;fillColor=#e3c800;fontColor=#000000;strokeColor=#B09500;" parent="1" vertex="1">
          <mxGeometry x="354" y="300" width="60" height="40" as="geometry" />
        </mxCell>
        <mxCell id="j3HLhpbiNIqz7EdV_f9R-76" style="edgeStyle=orthogonalEdgeStyle;rounded=0;orthogonalLoop=1;jettySize=auto;html=1;entryX=0;entryY=0.75;entryDx=0;entryDy=0;endArrow=none;startFill=0;" parent="1" source="j3HLhpbiNIqz7EdV_f9R-72" target="j3HLhpbiNIqz7EdV_f9R-74" edge="1">
          <mxGeometry relative="1" as="geometry" />
        </mxCell>
        <mxCell id="I5uV3tTVBNDLf7I_nqJX-32" value="288mm" style="edgeLabel;html=1;align=center;verticalAlign=middle;resizable=0;points=[];" parent="j3HLhpbiNIqz7EdV_f9R-76" vertex="1" connectable="0">
          <mxGeometry x="-0.0101" relative="1" as="geometry">
            <mxPoint as="offset" />
          </mxGeometry>
        </mxCell>
        <mxCell id="j3HLhpbiNIqz7EdV_f9R-72" value="S7" style="rounded=0;whiteSpace=wrap;html=1;fillColor=#a20025;fontColor=#ffffff;strokeColor=#6F0000;" parent="1" vertex="1">
          <mxGeometry x="494" y="300" width="60" height="40" as="geometry" />
        </mxCell>
        <mxCell id="j3HLhpbiNIqz7EdV_f9R-75" style="edgeStyle=orthogonalEdgeStyle;rounded=0;orthogonalLoop=1;jettySize=auto;html=1;entryX=1;entryY=0.5;entryDx=0;entryDy=0;endArrow=none;startFill=0;" parent="1" source="j3HLhpbiNIqz7EdV_f9R-74" target="j3HLhpbiNIqz7EdV_f9R-62" edge="1">
          <mxGeometry relative="1" as="geometry" />
        </mxCell>
        <mxCell id="I5uV3tTVBNDLf7I_nqJX-17" value="282mm" style="edgeLabel;html=1;align=center;verticalAlign=middle;resizable=0;points=[];" parent="j3HLhpbiNIqz7EdV_f9R-75" vertex="1" connectable="0">
          <mxGeometry x="-0.0366" relative="1" as="geometry">
            <mxPoint as="offset" />
          </mxGeometry>
        </mxCell>
        <mxCell id="j3HLhpbiNIqz7EdV_f9R-78" value="" style="edgeStyle=orthogonalEdgeStyle;rounded=0;orthogonalLoop=1;jettySize=auto;html=1;endArrow=none;startFill=0;" parent="1" source="j3HLhpbiNIqz7EdV_f9R-74" target="j3HLhpbiNIqz7EdV_f9R-77" edge="1">
          <mxGeometry relative="1" as="geometry" />
        </mxCell>
        <mxCell id="I5uV3tTVBNDLf7I_nqJX-18" value="187mm" style="edgeLabel;html=1;align=center;verticalAlign=middle;resizable=0;points=[];" parent="j3HLhpbiNIqz7EdV_f9R-78" vertex="1" connectable="0">
          <mxGeometry x="0.0445" y="1" relative="1" as="geometry">
            <mxPoint as="offset" />
          </mxGeometry>
        </mxCell>
        <mxCell id="j3HLhpbiNIqz7EdV_f9R-74" value="W6" style="rounded=0;whiteSpace=wrap;html=1;fillColor=#008a00;fontColor=#ffffff;strokeColor=#005700;" parent="1" vertex="1">
          <mxGeometry x="620" y="240" width="60" height="40" as="geometry" />
        </mxCell>
        <mxCell id="j3HLhpbiNIqz7EdV_f9R-81" value="" style="edgeStyle=orthogonalEdgeStyle;rounded=0;orthogonalLoop=1;jettySize=auto;html=1;endArrow=none;startFill=0;" parent="1" source="j3HLhpbiNIqz7EdV_f9R-77" target="j3HLhpbiNIqz7EdV_f9R-80" edge="1">
          <mxGeometry relative="1" as="geometry" />
        </mxCell>
        <mxCell id="I5uV3tTVBNDLf7I_nqJX-19" value="565mm" style="edgeLabel;html=1;align=center;verticalAlign=middle;resizable=0;points=[];" parent="j3HLhpbiNIqz7EdV_f9R-81" vertex="1" connectable="0">
          <mxGeometry x="-0.0321" y="1" relative="1" as="geometry">
            <mxPoint as="offset" />
          </mxGeometry>
        </mxCell>
        <mxCell id="j3HLhpbiNIqz7EdV_f9R-77" value="K13" style="rounded=0;whiteSpace=wrap;html=1;fillColor=#e3c800;fontColor=#000000;strokeColor=#B09500;" parent="1" vertex="1">
          <mxGeometry x="915" y="240" width="60" height="40" as="geometry" />
        </mxCell>
        <mxCell id="j3HLhpbiNIqz7EdV_f9R-83" value="" style="edgeStyle=orthogonalEdgeStyle;rounded=0;orthogonalLoop=1;jettySize=auto;html=1;endArrow=none;startFill=0;" parent="1" source="j3HLhpbiNIqz7EdV_f9R-80" target="j3HLhpbiNIqz7EdV_f9R-82" edge="1">
          <mxGeometry relative="1" as="geometry" />
        </mxCell>
        <mxCell id="I5uV3tTVBNDLf7I_nqJX-20" value="188mm" style="edgeLabel;html=1;align=center;verticalAlign=middle;resizable=0;points=[];" parent="j3HLhpbiNIqz7EdV_f9R-83" vertex="1" connectable="0">
          <mxGeometry x="-0.092" y="-1" relative="1" as="geometry">
            <mxPoint as="offset" />
          </mxGeometry>
        </mxCell>
        <mxCell id="j3HLhpbiNIqz7EdV_f9R-80" value="W17" style="rounded=0;whiteSpace=wrap;html=1;fillColor=#008a00;fontColor=#ffffff;strokeColor=#005700;" parent="1" vertex="1">
          <mxGeometry x="915" y="565" width="60" height="40" as="geometry" />
        </mxCell>
        <mxCell id="j3HLhpbiNIqz7EdV_f9R-86" style="edgeStyle=orthogonalEdgeStyle;rounded=0;orthogonalLoop=1;jettySize=auto;html=1;entryX=1;entryY=0.25;entryDx=0;entryDy=0;endArrow=none;startFill=0;" parent="1" source="j3HLhpbiNIqz7EdV_f9R-82" target="j3HLhpbiNIqz7EdV_f9R-6" edge="1">
          <mxGeometry relative="1" as="geometry">
            <mxPoint x="875" y="887" as="targetPoint" />
            <Array as="points">
              <mxPoint x="945" y="887" />
            </Array>
          </mxGeometry>
        </mxCell>
        <mxCell id="I5uV3tTVBNDLf7I_nqJX-21" value="344mm" style="edgeLabel;html=1;align=center;verticalAlign=middle;resizable=0;points=[];" parent="j3HLhpbiNIqz7EdV_f9R-86" vertex="1" connectable="0">
          <mxGeometry x="-0.198" relative="1" as="geometry">
            <mxPoint as="offset" />
          </mxGeometry>
        </mxCell>
        <mxCell id="j3HLhpbiNIqz7EdV_f9R-82" value="W16" style="rounded=0;whiteSpace=wrap;html=1;fillColor=#008a00;fontColor=#ffffff;strokeColor=#005700;" parent="1" vertex="1">
          <mxGeometry x="915" y="659" width="60" height="40" as="geometry" />
        </mxCell>
        <mxCell id="j3HLhpbiNIqz7EdV_f9R-88" style="edgeStyle=orthogonalEdgeStyle;rounded=0;orthogonalLoop=1;jettySize=auto;html=1;entryX=0.25;entryY=1;entryDx=0;entryDy=0;endArrow=none;startFill=0;exitX=1;exitY=0.5;exitDx=0;exitDy=0;" parent="1" source="j3HLhpbiNIqz7EdV_f9R-87" target="j3HLhpbiNIqz7EdV_f9R-82" edge="1">
          <mxGeometry relative="1" as="geometry">
            <mxPoint x="875" y="767" as="sourcePoint" />
          </mxGeometry>
        </mxCell>
        <mxCell id="I5uV3tTVBNDLf7I_nqJX-22" value="266mm" style="edgeLabel;html=1;align=center;verticalAlign=middle;resizable=0;points=[];" parent="j3HLhpbiNIqz7EdV_f9R-88" vertex="1" connectable="0">
          <mxGeometry x="-0.5066" y="-1" relative="1" as="geometry">
            <mxPoint as="offset" />
          </mxGeometry>
        </mxCell>
        <mxCell id="j3HLhpbiNIqz7EdV_f9R-90" value="" style="edgeStyle=orthogonalEdgeStyle;rounded=0;orthogonalLoop=1;jettySize=auto;html=1;endArrow=none;startFill=0;" parent="1" source="j3HLhpbiNIqz7EdV_f9R-87" target="j3HLhpbiNIqz7EdV_f9R-89" edge="1">
          <mxGeometry relative="1" as="geometry" />
        </mxCell>
        <mxCell id="j3HLhpbiNIqz7EdV_f9R-91" value="0mm" style="edgeLabel;html=1;align=center;verticalAlign=middle;resizable=0;points=[];" parent="j3HLhpbiNIqz7EdV_f9R-90" vertex="1" connectable="0">
          <mxGeometry x="0.0232" relative="1" as="geometry">
            <mxPoint y="1" as="offset" />
          </mxGeometry>
        </mxCell>
        <mxCell id="j3HLhpbiNIqz7EdV_f9R-87" value="S2" style="rounded=0;whiteSpace=wrap;html=1;fillColor=#a20025;fontColor=#ffffff;strokeColor=#6F0000;" parent="1" vertex="1">
          <mxGeometry x="811" y="764" width="60" height="40" as="geometry" />
        </mxCell>
        <mxCell id="j3HLhpbiNIqz7EdV_f9R-93" value="" style="edgeStyle=orthogonalEdgeStyle;rounded=0;orthogonalLoop=1;jettySize=auto;html=1;endArrow=none;startFill=0;exitX=0;exitY=0.5;exitDx=0;exitDy=0;" parent="1" source="j3HLhpbiNIqz7EdV_f9R-89" target="j3HLhpbiNIqz7EdV_f9R-92" edge="1">
          <mxGeometry relative="1" as="geometry">
            <mxPoint x="658" y="784" as="sourcePoint" />
          </mxGeometry>
        </mxCell>
        <mxCell id="I5uV3tTVBNDLf7I_nqJX-23" value="415mm" style="edgeLabel;html=1;align=center;verticalAlign=middle;resizable=0;points=[];" parent="j3HLhpbiNIqz7EdV_f9R-93" vertex="1" connectable="0">
          <mxGeometry x="0.1398" y="1" relative="1" as="geometry">
            <mxPoint x="4" as="offset" />
          </mxGeometry>
        </mxCell>
        <mxCell id="j3HLhpbiNIqz7EdV_f9R-89" value="K6" style="rounded=0;whiteSpace=wrap;html=1;fillColor=#e3c800;fontColor=#000000;strokeColor=#B09500;" parent="1" vertex="1">
          <mxGeometry x="710" y="764" width="60" height="40" as="geometry" />
        </mxCell>
        <mxCell id="j3HLhpbiNIqz7EdV_f9R-95" value="" style="edgeStyle=orthogonalEdgeStyle;rounded=0;orthogonalLoop=1;jettySize=auto;html=1;endArrow=none;startFill=0;" parent="1" source="j3HLhpbiNIqz7EdV_f9R-92" target="j3HLhpbiNIqz7EdV_f9R-94" edge="1">
          <mxGeometry relative="1" as="geometry" />
        </mxCell>
        <mxCell id="I5uV3tTVBNDLf7I_nqJX-24" value="284mm" style="edgeLabel;html=1;align=center;verticalAlign=middle;resizable=0;points=[];" parent="j3HLhpbiNIqz7EdV_f9R-95" vertex="1" connectable="0">
          <mxGeometry x="-0.0431" y="1" relative="1" as="geometry">
            <mxPoint as="offset" />
          </mxGeometry>
        </mxCell>
        <mxCell id="j3HLhpbiNIqz7EdV_f9R-92" value="W3" style="rounded=0;whiteSpace=wrap;html=1;fillColor=#008a00;fontColor=#ffffff;strokeColor=#005700;" parent="1" vertex="1">
          <mxGeometry x="590" y="764" width="60" height="40" as="geometry" />
        </mxCell>
        <mxCell id="j3HLhpbiNIqz7EdV_f9R-97" value="" style="edgeStyle=orthogonalEdgeStyle;rounded=0;orthogonalLoop=1;jettySize=auto;html=1;endArrow=none;startFill=0;entryX=1;entryY=0.5;entryDx=0;entryDy=0;" parent="1" source="j3HLhpbiNIqz7EdV_f9R-94" target="j3HLhpbiNIqz7EdV_f9R-96" edge="1">
          <mxGeometry relative="1" as="geometry">
            <mxPoint x="418" y="784" as="targetPoint" />
          </mxGeometry>
        </mxCell>
        <mxCell id="I5uV3tTVBNDLf7I_nqJX-25" value="86mm" style="edgeLabel;html=1;align=center;verticalAlign=middle;resizable=0;points=[];" parent="j3HLhpbiNIqz7EdV_f9R-97" vertex="1" connectable="0">
          <mxGeometry x="-0.0262" y="1" relative="1" as="geometry">
            <mxPoint as="offset" />
          </mxGeometry>
        </mxCell>
        <mxCell id="j3HLhpbiNIqz7EdV_f9R-94" value="K3" style="rounded=0;whiteSpace=wrap;html=1;fillColor=#e3c800;fontColor=#000000;strokeColor=#B09500;" parent="1" vertex="1">
          <mxGeometry x="458" y="764" width="60" height="40" as="geometry" />
        </mxCell>
        <mxCell id="j3HLhpbiNIqz7EdV_f9R-98" style="edgeStyle=orthogonalEdgeStyle;rounded=0;orthogonalLoop=1;jettySize=auto;html=1;entryX=1;entryY=0.5;entryDx=0;entryDy=0;endArrow=none;startFill=0;" parent="1" source="j3HLhpbiNIqz7EdV_f9R-96" target="j3HLhpbiNIqz7EdV_f9R-18" edge="1">
          <mxGeometry relative="1" as="geometry" />
        </mxCell>
        <mxCell id="I5uV3tTVBNDLf7I_nqJX-26" value="272mm" style="edgeLabel;html=1;align=center;verticalAlign=middle;resizable=0;points=[];" parent="j3HLhpbiNIqz7EdV_f9R-98" vertex="1" connectable="0">
          <mxGeometry x="0.0147" relative="1" as="geometry">
            <mxPoint as="offset" />
          </mxGeometry>
        </mxCell>
        <mxCell id="j3HLhpbiNIqz7EdV_f9R-96" value="S6" style="rounded=0;whiteSpace=wrap;html=1;fillColor=#a20025;fontColor=#ffffff;strokeColor=#6F0000;" parent="1" vertex="1">
          <mxGeometry x="340" y="764" width="60" height="40" as="geometry" />
        </mxCell>
        <mxCell id="j3HLhpbiNIqz7EdV_f9R-100" style="edgeStyle=orthogonalEdgeStyle;rounded=0;orthogonalLoop=1;jettySize=auto;html=1;entryX=0;entryY=0.25;entryDx=0;entryDy=0;endArrow=none;startFill=0;" parent="1" source="j3HLhpbiNIqz7EdV_f9R-99" target="j3HLhpbiNIqz7EdV_f9R-92" edge="1">
          <mxGeometry relative="1" as="geometry" />
        </mxCell>
        <mxCell id="I5uV3tTVBNDLf7I_nqJX-33" value="183mm" style="edgeLabel;html=1;align=center;verticalAlign=middle;resizable=0;points=[];" parent="j3HLhpbiNIqz7EdV_f9R-100" vertex="1" connectable="0">
          <mxGeometry x="-0.0018" relative="1" as="geometry">
            <mxPoint as="offset" />
          </mxGeometry>
        </mxCell>
        <mxCell id="j3HLhpbiNIqz7EdV_f9R-102" value="" style="edgeStyle=orthogonalEdgeStyle;rounded=0;orthogonalLoop=1;jettySize=auto;html=1;endArrow=none;startFill=0;" parent="1" source="j3HLhpbiNIqz7EdV_f9R-99" target="j3HLhpbiNIqz7EdV_f9R-101" edge="1">
          <mxGeometry relative="1" as="geometry" />
        </mxCell>
        <mxCell id="I5uV3tTVBNDLf7I_nqJX-34" value="140mm" style="edgeLabel;html=1;align=center;verticalAlign=middle;resizable=0;points=[];" parent="j3HLhpbiNIqz7EdV_f9R-102" vertex="1" connectable="0">
          <mxGeometry x="-0.0146" y="2" relative="1" as="geometry">
            <mxPoint as="offset" />
          </mxGeometry>
        </mxCell>
        <mxCell id="j3HLhpbiNIqz7EdV_f9R-99" value="W4" style="rounded=0;whiteSpace=wrap;html=1;fillColor=#647687;fontColor=#ffffff;strokeColor=#314354;" parent="1" vertex="1">
          <mxGeometry x="474" y="675" width="60" height="40" as="geometry" />
        </mxCell>
        <mxCell id="j3HLhpbiNIqz7EdV_f9R-105" value="" style="edgeStyle=orthogonalEdgeStyle;rounded=0;orthogonalLoop=1;jettySize=auto;html=1;endArrow=none;startFill=0;exitX=0;exitY=0.75;exitDx=0;exitDy=0;" parent="1" source="j3HLhpbiNIqz7EdV_f9R-101" target="j3HLhpbiNIqz7EdV_f9R-104" edge="1">
          <mxGeometry relative="1" as="geometry">
            <mxPoint x="350" y="705" as="sourcePoint" />
            <Array as="points">
              <mxPoint x="320" y="705" />
              <mxPoint x="320" y="727" />
            </Array>
          </mxGeometry>
        </mxCell>
        <mxCell id="I5uV3tTVBNDLf7I_nqJX-35" value="230mm" style="edgeLabel;html=1;align=center;verticalAlign=middle;resizable=0;points=[];" parent="j3HLhpbiNIqz7EdV_f9R-105" vertex="1" connectable="0">
          <mxGeometry x="0.5019" relative="1" as="geometry">
            <mxPoint as="offset" />
          </mxGeometry>
        </mxCell>
        <mxCell id="j3HLhpbiNIqz7EdV_f9R-101" value="W1" style="rounded=0;whiteSpace=wrap;html=1;fillColor=#008a00;fontColor=#ffffff;strokeColor=#005700;" parent="1" vertex="1">
          <mxGeometry x="357" y="675" width="60" height="40" as="geometry" />
        </mxCell>
        <mxCell id="j3HLhpbiNIqz7EdV_f9R-107" value="" style="edgeStyle=orthogonalEdgeStyle;rounded=0;orthogonalLoop=1;jettySize=auto;html=1;endArrow=none;startFill=0;" parent="1" source="j3HLhpbiNIqz7EdV_f9R-104" target="j3HLhpbiNIqz7EdV_f9R-106" edge="1">
          <mxGeometry relative="1" as="geometry" />
        </mxCell>
        <mxCell id="I5uV3tTVBNDLf7I_nqJX-36" value="564mm" style="edgeLabel;html=1;align=center;verticalAlign=middle;resizable=0;points=[];" parent="j3HLhpbiNIqz7EdV_f9R-107" vertex="1" connectable="0">
          <mxGeometry x="0.0356" relative="1" as="geometry">
            <mxPoint as="offset" />
          </mxGeometry>
        </mxCell>
        <mxCell id="j3HLhpbiNIqz7EdV_f9R-104" value="K9" style="rounded=0;whiteSpace=wrap;html=1;fillColor=#e3c800;fontColor=#000000;strokeColor=#B09500;" parent="1" vertex="1">
          <mxGeometry x="200" y="707" width="60" height="40" as="geometry" />
        </mxCell>
        <mxCell id="j3HLhpbiNIqz7EdV_f9R-106" value="P2" style="rounded=0;whiteSpace=wrap;html=1;fillColor=#647687;fontColor=#ffffff;strokeColor=#314354;" parent="1" vertex="1">
          <mxGeometry x="80" y="707" width="60" height="40" as="geometry" />
        </mxCell>
        <mxCell id="j3HLhpbiNIqz7EdV_f9R-110" style="edgeStyle=orthogonalEdgeStyle;rounded=0;orthogonalLoop=1;jettySize=auto;html=1;entryX=0;entryY=0.5;entryDx=0;entryDy=0;endArrow=none;startFill=0;" parent="1" source="j3HLhpbiNIqz7EdV_f9R-109" target="j3HLhpbiNIqz7EdV_f9R-101" edge="1">
          <mxGeometry relative="1" as="geometry">
            <Array as="points">
              <mxPoint x="320" y="665" />
              <mxPoint x="320" y="695" />
            </Array>
          </mxGeometry>
        </mxCell>
        <mxCell id="I5uV3tTVBNDLf7I_nqJX-37" value="190mm" style="edgeLabel;html=1;align=center;verticalAlign=middle;resizable=0;points=[];" parent="j3HLhpbiNIqz7EdV_f9R-110" vertex="1" connectable="0">
          <mxGeometry x="-0.5118" y="-1" relative="1" as="geometry">
            <mxPoint as="offset" />
          </mxGeometry>
        </mxCell>
        <mxCell id="j3HLhpbiNIqz7EdV_f9R-112" value="" style="edgeStyle=orthogonalEdgeStyle;rounded=0;orthogonalLoop=1;jettySize=auto;html=1;endArrow=none;startFill=0;" parent="1" source="j3HLhpbiNIqz7EdV_f9R-109" target="j3HLhpbiNIqz7EdV_f9R-111" edge="1">
          <mxGeometry relative="1" as="geometry" />
        </mxCell>
        <mxCell id="I5uV3tTVBNDLf7I_nqJX-40" value="754mm" style="edgeLabel;html=1;align=center;verticalAlign=middle;resizable=0;points=[];" parent="j3HLhpbiNIqz7EdV_f9R-112" vertex="1" connectable="0">
          <mxGeometry x="0.0333" y="-1" relative="1" as="geometry">
            <mxPoint as="offset" />
          </mxGeometry>
        </mxCell>
        <mxCell id="j3HLhpbiNIqz7EdV_f9R-109" value="K2" style="rounded=0;whiteSpace=wrap;html=1;fillColor=#e3c800;fontColor=#000000;strokeColor=#B09500;" parent="1" vertex="1">
          <mxGeometry x="200" y="645" width="60" height="40" as="geometry" />
        </mxCell>
        <mxCell id="j3HLhpbiNIqz7EdV_f9R-111" value="P3" style="rounded=0;whiteSpace=wrap;html=1;fillColor=#647687;fontColor=#ffffff;strokeColor=#314354;" parent="1" vertex="1">
          <mxGeometry x="80" y="645" width="60" height="40" as="geometry" />
        </mxCell>
        <mxCell id="j3HLhpbiNIqz7EdV_f9R-114" style="edgeStyle=orthogonalEdgeStyle;rounded=0;orthogonalLoop=1;jettySize=auto;html=1;entryX=0;entryY=0.25;entryDx=0;entryDy=0;exitX=1;exitY=0.75;exitDx=0;exitDy=0;endArrow=none;startFill=0;" parent="1" source="j3HLhpbiNIqz7EdV_f9R-113" target="j3HLhpbiNIqz7EdV_f9R-101" edge="1">
          <mxGeometry relative="1" as="geometry">
            <mxPoint x="340" y="605" as="sourcePoint" />
          </mxGeometry>
        </mxCell>
        <mxCell id="I5uV3tTVBNDLf7I_nqJX-41" value="564mm" style="edgeLabel;html=1;align=center;verticalAlign=middle;resizable=0;points=[];" parent="j3HLhpbiNIqz7EdV_f9R-114" vertex="1" connectable="0">
          <mxGeometry x="-0.0735" y="-1" relative="1" as="geometry">
            <mxPoint as="offset" />
          </mxGeometry>
        </mxCell>
        <mxCell id="j3HLhpbiNIqz7EdV_f9R-116" value="" style="edgeStyle=orthogonalEdgeStyle;rounded=0;orthogonalLoop=1;jettySize=auto;html=1;endArrow=none;startFill=0;exitX=0;exitY=0.75;exitDx=0;exitDy=0;" parent="1" source="j3HLhpbiNIqz7EdV_f9R-113" target="j3HLhpbiNIqz7EdV_f9R-115" edge="1">
          <mxGeometry relative="1" as="geometry" />
        </mxCell>
        <mxCell id="I5uV3tTVBNDLf7I_nqJX-42" value="524mm" style="edgeLabel;html=1;align=center;verticalAlign=middle;resizable=0;points=[];" parent="j3HLhpbiNIqz7EdV_f9R-116" vertex="1" connectable="0">
          <mxGeometry x="-0.0503" relative="1" as="geometry">
            <mxPoint as="offset" />
          </mxGeometry>
        </mxCell>
        <mxCell id="j3HLhpbiNIqz7EdV_f9R-117" style="edgeStyle=orthogonalEdgeStyle;rounded=0;orthogonalLoop=1;jettySize=auto;html=1;entryX=0.5;entryY=0;entryDx=0;entryDy=0;exitX=0;exitY=0.25;exitDx=0;exitDy=0;endArrow=none;startFill=0;" parent="1" source="j3HLhpbiNIqz7EdV_f9R-113" target="j3HLhpbiNIqz7EdV_f9R-49" edge="1">
          <mxGeometry relative="1" as="geometry">
            <Array as="points">
              <mxPoint x="190" y="575" />
              <mxPoint x="190" y="555" />
              <mxPoint x="10" y="555" />
            </Array>
          </mxGeometry>
        </mxCell>
        <mxCell id="I5uV3tTVBNDLf7I_nqJX-27" value="1173mm" style="edgeLabel;html=1;align=center;verticalAlign=middle;resizable=0;points=[];" parent="j3HLhpbiNIqz7EdV_f9R-117" vertex="1" connectable="0">
          <mxGeometry x="0.0338" y="2" relative="1" as="geometry">
            <mxPoint y="-1" as="offset" />
          </mxGeometry>
        </mxCell>
        <mxCell id="j3HLhpbiNIqz7EdV_f9R-119" value="" style="edgeStyle=orthogonalEdgeStyle;rounded=0;orthogonalLoop=1;jettySize=auto;html=1;exitX=1;exitY=0.25;exitDx=0;exitDy=0;endArrow=none;startFill=0;" parent="1" source="j3HLhpbiNIqz7EdV_f9R-113" target="j3HLhpbiNIqz7EdV_f9R-118" edge="1">
          <mxGeometry relative="1" as="geometry" />
        </mxCell>
        <mxCell id="I5uV3tTVBNDLf7I_nqJX-46" value="141mm" style="edgeLabel;html=1;align=center;verticalAlign=middle;resizable=0;points=[];" parent="j3HLhpbiNIqz7EdV_f9R-119" vertex="1" connectable="0">
          <mxGeometry x="0.0071" relative="1" as="geometry">
            <mxPoint as="offset" />
          </mxGeometry>
        </mxCell>
        <mxCell id="j3HLhpbiNIqz7EdV_f9R-113" value="W12" style="rounded=0;whiteSpace=wrap;html=1;fillColor=#008a00;fontColor=#ffffff;strokeColor=#005700;" parent="1" vertex="1">
          <mxGeometry x="250" y="565" width="60" height="40" as="geometry" />
        </mxCell>
        <mxCell id="j3HLhpbiNIqz7EdV_f9R-115" value="P4" style="rounded=0;whiteSpace=wrap;html=1;fillColor=#647687;fontColor=#ffffff;strokeColor=#314354;" parent="1" vertex="1">
          <mxGeometry x="80" y="575" width="60" height="40" as="geometry" />
        </mxCell>
        <mxCell id="j3HLhpbiNIqz7EdV_f9R-121" value="" style="edgeStyle=orthogonalEdgeStyle;rounded=0;orthogonalLoop=1;jettySize=auto;html=1;endArrow=none;startFill=0;" parent="1" source="j3HLhpbiNIqz7EdV_f9R-118" target="j3HLhpbiNIqz7EdV_f9R-120" edge="1">
          <mxGeometry relative="1" as="geometry" />
        </mxCell>
        <mxCell id="I5uV3tTVBNDLf7I_nqJX-48" value="94mm" style="edgeLabel;html=1;align=center;verticalAlign=middle;resizable=0;points=[];" parent="j3HLhpbiNIqz7EdV_f9R-121" vertex="1" connectable="0">
          <mxGeometry x="-0.0422" relative="1" as="geometry">
            <mxPoint as="offset" />
          </mxGeometry>
        </mxCell>
        <mxCell id="j3HLhpbiNIqz7EdV_f9R-118" value="W11" style="rounded=0;whiteSpace=wrap;html=1;fillColor=#647687;fontColor=#ffffff;strokeColor=#314354;" parent="1" vertex="1">
          <mxGeometry x="357" y="555" width="60" height="40" as="geometry" />
        </mxCell>
        <mxCell id="j3HLhpbiNIqz7EdV_f9R-123" value="" style="edgeStyle=orthogonalEdgeStyle;rounded=0;orthogonalLoop=1;jettySize=auto;html=1;endArrow=none;startFill=0;" parent="1" source="j3HLhpbiNIqz7EdV_f9R-120" target="j3HLhpbiNIqz7EdV_f9R-122" edge="1">
          <mxGeometry relative="1" as="geometry" />
        </mxCell>
        <mxCell id="I5uV3tTVBNDLf7I_nqJX-49" value="140mm" style="edgeLabel;html=1;align=center;verticalAlign=middle;resizable=0;points=[];" parent="j3HLhpbiNIqz7EdV_f9R-123" vertex="1" connectable="0">
          <mxGeometry x="-0.006" y="-1" relative="1" as="geometry">
            <mxPoint as="offset" />
          </mxGeometry>
        </mxCell>
        <mxCell id="j3HLhpbiNIqz7EdV_f9R-120" value="K31" style="rounded=0;whiteSpace=wrap;html=1;fillColor=#e3c800;fontColor=#000000;strokeColor=#B09500;" parent="1" vertex="1">
          <mxGeometry x="460" y="555" width="60" height="40" as="geometry" />
        </mxCell>
        <mxCell id="j3HLhpbiNIqz7EdV_f9R-125" value="" style="edgeStyle=orthogonalEdgeStyle;rounded=0;orthogonalLoop=1;jettySize=auto;html=1;endArrow=none;startFill=0;" parent="1" source="j3HLhpbiNIqz7EdV_f9R-122" target="j3HLhpbiNIqz7EdV_f9R-124" edge="1">
          <mxGeometry relative="1" as="geometry" />
        </mxCell>
        <mxCell id="I5uV3tTVBNDLf7I_nqJX-52" value="182mm" style="edgeLabel;html=1;align=center;verticalAlign=middle;resizable=0;points=[];" parent="j3HLhpbiNIqz7EdV_f9R-125" vertex="1" connectable="0">
          <mxGeometry x="0.0343" relative="1" as="geometry">
            <mxPoint as="offset" />
          </mxGeometry>
        </mxCell>
        <mxCell id="j3HLhpbiNIqz7EdV_f9R-122" value="W5" style="rounded=0;whiteSpace=wrap;html=1;fillColor=#008a00;fontColor=#ffffff;strokeColor=#005700;" parent="1" vertex="1">
          <mxGeometry x="571" y="555" width="60" height="40" as="geometry" />
        </mxCell>
        <mxCell id="j3HLhpbiNIqz7EdV_f9R-132" value="" style="edgeStyle=orthogonalEdgeStyle;rounded=0;orthogonalLoop=1;jettySize=auto;html=1;endArrow=none;startFill=0;" parent="1" source="j3HLhpbiNIqz7EdV_f9R-124" target="j3HLhpbiNIqz7EdV_f9R-131" edge="1">
          <mxGeometry relative="1" as="geometry" />
        </mxCell>
        <mxCell id="I5uV3tTVBNDLf7I_nqJX-55" value="369mm" style="edgeLabel;html=1;align=center;verticalAlign=middle;resizable=0;points=[];" parent="j3HLhpbiNIqz7EdV_f9R-132" vertex="1" connectable="0">
          <mxGeometry x="-0.0987" relative="1" as="geometry">
            <mxPoint as="offset" />
          </mxGeometry>
        </mxCell>
        <mxCell id="j3HLhpbiNIqz7EdV_f9R-124" value="K21" style="rounded=0;whiteSpace=wrap;html=1;fillColor=#e3c800;fontColor=#000000;strokeColor=#B09500;" parent="1" vertex="1">
          <mxGeometry x="691" y="555" width="60" height="40" as="geometry" />
        </mxCell>
        <mxCell id="j3HLhpbiNIqz7EdV_f9R-127" style="edgeStyle=orthogonalEdgeStyle;rounded=0;orthogonalLoop=1;jettySize=auto;html=1;entryX=1;entryY=0.75;entryDx=0;entryDy=0;endArrow=none;startFill=0;" parent="1" source="j3HLhpbiNIqz7EdV_f9R-126" target="j3HLhpbiNIqz7EdV_f9R-122" edge="1">
          <mxGeometry relative="1" as="geometry" />
        </mxCell>
        <mxCell id="I5uV3tTVBNDLf7I_nqJX-54" value="186mm" style="edgeLabel;html=1;align=center;verticalAlign=middle;resizable=0;points=[];" parent="j3HLhpbiNIqz7EdV_f9R-127" vertex="1" connectable="0">
          <mxGeometry x="-0.0208" relative="1" as="geometry">
            <mxPoint as="offset" />
          </mxGeometry>
        </mxCell>
        <mxCell id="j3HLhpbiNIqz7EdV_f9R-129" value="" style="edgeStyle=orthogonalEdgeStyle;rounded=0;orthogonalLoop=1;jettySize=auto;html=1;endArrow=none;startFill=0;" parent="1" source="j3HLhpbiNIqz7EdV_f9R-126" target="j3HLhpbiNIqz7EdV_f9R-128" edge="1">
          <mxGeometry relative="1" as="geometry" />
        </mxCell>
        <mxCell id="I5uV3tTVBNDLf7I_nqJX-44" value="376mm" style="edgeLabel;html=1;align=center;verticalAlign=middle;resizable=0;points=[];" parent="j3HLhpbiNIqz7EdV_f9R-129" vertex="1" connectable="0">
          <mxGeometry x="-0.306" relative="1" as="geometry">
            <mxPoint x="9" as="offset" />
          </mxGeometry>
        </mxCell>
        <mxCell id="j3HLhpbiNIqz7EdV_f9R-126" value="K10" style="rounded=0;whiteSpace=wrap;html=1;fillColor=#e3c800;fontColor=#000000;strokeColor=#B09500;" parent="1" vertex="1">
          <mxGeometry x="691" y="605" width="60" height="40" as="geometry" />
        </mxCell>
        <mxCell id="j3HLhpbiNIqz7EdV_f9R-128" value="K5" style="rounded=0;whiteSpace=wrap;html=1;fillColor=#e3c800;fontColor=#000000;strokeColor=#B09500;" parent="1" vertex="1">
          <mxGeometry x="811" y="605" width="60" height="40" as="geometry" />
        </mxCell>
        <mxCell id="j3HLhpbiNIqz7EdV_f9R-131" value="K20" style="rounded=0;whiteSpace=wrap;html=1;fillColor=#e3c800;fontColor=#000000;strokeColor=#B09500;" parent="1" vertex="1">
          <mxGeometry x="811" y="555" width="60" height="40" as="geometry" />
        </mxCell>
        <mxCell id="j3HLhpbiNIqz7EdV_f9R-133" value="" style="edgeStyle=orthogonalEdgeStyle;rounded=0;orthogonalLoop=1;jettySize=auto;html=1;endArrow=none;startFill=0;" parent="1" source="j3HLhpbiNIqz7EdV_f9R-134" target="j3HLhpbiNIqz7EdV_f9R-135" edge="1">
          <mxGeometry relative="1" as="geometry" />
        </mxCell>
        <mxCell id="I5uV3tTVBNDLf7I_nqJX-43" value="376mm" style="edgeLabel;html=1;align=center;verticalAlign=middle;resizable=0;points=[];" parent="j3HLhpbiNIqz7EdV_f9R-133" vertex="1" connectable="0">
          <mxGeometry x="-0.1009" y="1" relative="1" as="geometry">
            <mxPoint y="1" as="offset" />
          </mxGeometry>
        </mxCell>
        <mxCell id="j3HLhpbiNIqz7EdV_f9R-136" style="edgeStyle=orthogonalEdgeStyle;rounded=0;orthogonalLoop=1;jettySize=auto;html=1;entryX=1;entryY=0.25;entryDx=0;entryDy=0;endArrow=none;startFill=0;" parent="1" source="j3HLhpbiNIqz7EdV_f9R-134" target="j3HLhpbiNIqz7EdV_f9R-122" edge="1">
          <mxGeometry relative="1" as="geometry" />
        </mxCell>
        <mxCell id="I5uV3tTVBNDLf7I_nqJX-53" value="186mm" style="edgeLabel;html=1;align=center;verticalAlign=middle;resizable=0;points=[];" parent="j3HLhpbiNIqz7EdV_f9R-136" vertex="1" connectable="0">
          <mxGeometry x="-0.0272" relative="1" as="geometry">
            <mxPoint as="offset" />
          </mxGeometry>
        </mxCell>
        <mxCell id="j3HLhpbiNIqz7EdV_f9R-134" value="K17" style="rounded=0;whiteSpace=wrap;html=1;fillColor=#e3c800;fontColor=#000000;strokeColor=#B09500;" parent="1" vertex="1">
          <mxGeometry x="691" y="505" width="60" height="40" as="geometry" />
        </mxCell>
        <mxCell id="j3HLhpbiNIqz7EdV_f9R-135" value="K19" style="rounded=0;whiteSpace=wrap;html=1;fillColor=#e3c800;fontColor=#000000;strokeColor=#B09500;" parent="1" vertex="1">
          <mxGeometry x="811" y="505" width="60" height="40" as="geometry" />
        </mxCell>
        <mxCell id="j3HLhpbiNIqz7EdV_f9R-138" style="edgeStyle=orthogonalEdgeStyle;rounded=0;orthogonalLoop=1;jettySize=auto;html=1;entryX=0.25;entryY=0;entryDx=0;entryDy=0;endArrow=none;startFill=0;" parent="1" target="j3HLhpbiNIqz7EdV_f9R-80" edge="1">
          <mxGeometry relative="1" as="geometry">
            <mxPoint x="930" y="560" as="sourcePoint" />
            <Array as="points">
              <mxPoint x="930" y="490" />
              <mxPoint x="930" y="480" />
              <mxPoint x="880" y="480" />
              <mxPoint x="880" y="440" />
              <mxPoint x="730" y="440" />
              <mxPoint x="730" y="340" />
              <mxPoint x="920" y="340" />
              <mxPoint x="920" y="480" />
              <mxPoint x="930" y="480" />
            </Array>
          </mxGeometry>
        </mxCell>
        <mxCell id="I5uV3tTVBNDLf7I_nqJX-39" value="4947mm" style="edgeLabel;html=1;align=center;verticalAlign=middle;resizable=0;points=[];" parent="j3HLhpbiNIqz7EdV_f9R-138" vertex="1" connectable="0">
          <mxGeometry x="0.2249" y="-2" relative="1" as="geometry">
            <mxPoint y="-1" as="offset" />
          </mxGeometry>
        </mxCell>
      </root>
    </mxGraphModel>
  </diagram>
</mxfile>
